<?xml version="1.0" encoding="UTF-8" standalone="no"?>
<!-- Created with Inkscape (http://www.inkscape.org/) -->

<svg
   width="20.997787mm"
   height="9.89639mm"
   viewBox="0 0 20.997788 9.8963903"
   version="1.1"
   id="svg920"
   sodipodi:docname="enemyFeo.svg"
   inkscape:export-filename="D:\Developer\GameDev\Projects\Isaac\Assets\Sprites\enemy-feo.png"
   inkscape:export-xdpi="96"
   inkscape:export-ydpi="96"
   inkscape:version="1.1 (c68e22c387, 2021-05-23)"
   xmlns:inkscape="http://www.inkscape.org/namespaces/inkscape"
   xmlns:sodipodi="http://sodipodi.sourceforge.net/DTD/sodipodi-0.dtd"
   xmlns="http://www.w3.org/2000/svg"
   xmlns:svg="http://www.w3.org/2000/svg">
  <sodipodi:namedview
     id="namedview922"
     pagecolor="#ffffff"
     bordercolor="#999999"
     borderopacity="1"
     inkscape:pageshadow="0"
     inkscape:pageopacity="0"
     inkscape:pagecheckerboard="true"
     inkscape:document-units="mm"
     showgrid="false"
     fit-margin-top="0"
     fit-margin-left="0"
     fit-margin-right="0"
     fit-margin-bottom="0"
     inkscape:zoom="4.192802"
     inkscape:cx="80.733601"
     inkscape:cy="73.101473"
     inkscape:window-width="1920"
     inkscape:window-height="1017"
     inkscape:window-x="-8"
     inkscape:window-y="-8"
     inkscape:window-maximized="1"
     inkscape:current-layer="layer1" />
  <defs
     id="defs917">
    <inkscape:path-effect
       effect="skeletal"
       id="path-effect6664"
       is_visible="true"
       lpeversion="1"
       pattern="M 0,4.9921385 C 0,2.236478 2.236478,0 4.9921385,0 c 2.7556604,0 4.9921384,2.236478 4.9921384,4.9921385 0,2.7556604 -2.236478,4.9921384 -4.9921384,4.9921384 C 2.236478,9.9842769 0,7.7477989 0,4.9921385 Z"
       copytype="single_stretched"
       prop_scale="1"
       scale_y_rel="false"
       spacing="0"
       normal_offset="0"
       tang_offset="0"
       prop_units="false"
       vertical_pattern="false"
       hide_knot="false"
       fuse_tolerance="0" />
    <inkscape:path-effect
       effect="skeletal"
       id="path-effect6660"
       is_visible="true"
       lpeversion="1"
       pattern="M 0,4.9921385 C 0,2.236478 2.236478,0 4.9921385,0 c 2.7556604,0 4.9921384,2.236478 4.9921384,4.9921385 0,2.7556604 -2.236478,4.9921384 -4.9921384,4.9921384 C 2.236478,9.9842769 0,7.7477989 0,4.9921385 Z"
       copytype="single_stretched"
       prop_scale="1"
       scale_y_rel="false"
       spacing="0"
       normal_offset="0"
       tang_offset="0"
       prop_units="false"
       vertical_pattern="false"
       hide_knot="false"
       fuse_tolerance="0" />
    <inkscape:path-effect
       effect="skeletal"
       id="path-effect6656"
       is_visible="true"
       lpeversion="1"
       pattern="M 0,4.9921385 C 0,2.236478 2.236478,0 4.9921385,0 c 2.7556604,0 4.9921384,2.236478 4.9921384,4.9921385 0,2.7556604 -2.236478,4.9921384 -4.9921384,4.9921384 C 2.236478,9.9842769 0,7.7477989 0,4.9921385 Z"
       copytype="single_stretched"
       prop_scale="1"
       scale_y_rel="false"
       spacing="0"
       normal_offset="0"
       tang_offset="0"
       prop_units="false"
       vertical_pattern="false"
       hide_knot="false"
       fuse_tolerance="0" />
    <inkscape:path-effect
       effect="skeletal"
       id="path-effect6619"
       is_visible="true"
       lpeversion="1"
       pattern="M 0,4.9921385 C 0,2.236478 2.236478,0 4.9921385,0 c 2.7556604,0 4.9921384,2.236478 4.9921384,4.9921385 0,2.7556604 -2.236478,4.9921384 -4.9921384,4.9921384 C 2.236478,9.9842769 0,7.7477989 0,4.9921385 Z"
       copytype="single_stretched"
       prop_scale="1"
       scale_y_rel="false"
       spacing="0"
       normal_offset="0"
       tang_offset="0"
       prop_units="false"
       vertical_pattern="false"
       hide_knot="false"
       fuse_tolerance="0" />
    <inkscape:path-effect
       effect="skeletal"
       id="path-effect6615"
       is_visible="true"
       lpeversion="1"
       pattern="M 0,4.9921385 C 0,2.236478 2.236478,0 4.9921385,0 c 2.7556604,0 4.9921384,2.236478 4.9921384,4.9921385 0,2.7556604 -2.236478,4.9921384 -4.9921384,4.9921384 C 2.236478,9.9842769 0,7.7477989 0,4.9921385 Z"
       copytype="single_stretched"
       prop_scale="1"
       scale_y_rel="false"
       spacing="0"
       normal_offset="0"
       tang_offset="0"
       prop_units="false"
       vertical_pattern="false"
       hide_knot="false"
       fuse_tolerance="0" />
    <inkscape:path-effect
       effect="skeletal"
       id="path-effect3653"
       is_visible="true"
       lpeversion="1"
       pattern="M 0,4.9921385 C 0,2.236478 2.236478,0 4.9921385,0 c 2.7556604,0 4.9921384,2.236478 4.9921384,4.9921385 0,2.7556604 -2.236478,4.9921384 -4.9921384,4.9921384 C 2.236478,9.9842769 0,7.7477989 0,4.9921385 Z"
       copytype="single_stretched"
       prop_scale="1"
       scale_y_rel="false"
       spacing="0"
       normal_offset="0"
       tang_offset="0"
       prop_units="false"
       vertical_pattern="false"
       hide_knot="false"
       fuse_tolerance="0" />
    <inkscape:path-effect
       effect="skeletal"
       id="path-effect3606"
       is_visible="true"
       lpeversion="1"
       pattern="M 0,4.9921385 C 0,2.236478 2.236478,0 4.9921385,0 c 2.7556604,0 4.9921384,2.236478 4.9921384,4.9921385 0,2.7556604 -2.236478,4.9921384 -4.9921384,4.9921384 C 2.236478,9.9842769 0,7.7477989 0,4.9921385 Z"
       copytype="single_stretched"
       prop_scale="1"
       scale_y_rel="false"
       spacing="0"
       normal_offset="0"
       tang_offset="0"
       prop_units="false"
       vertical_pattern="false"
       hide_knot="false"
       fuse_tolerance="0" />
  </defs>
  <g
     inkscape:label="Capa 1"
     inkscape:groupmode="layer"
     id="layer1"
     transform="translate(-84.571974,-99.799437)">
    <rect
       style="fill:#000000;stroke:#000000;stroke-width:0.282001"
       id="rect2689"
       width="20.715786"
       height="9.6143894"
       x="84.712975"
       y="99.940437" />
    <path
       style="fill:#ff0000;stroke:#000000;stroke-width:0.0475586"
       d="m 88.364429,106.76631 c -0.652896,-0.19801 -0.509797,-1.17423 0.172125,-1.17423 0.226316,0 0.392929,0.0958 0.515109,0.29618 0.275941,0.45255 -0.177972,1.0325 -0.687234,0.87805 z"
       id="path4643" />
    <path
       style="fill:#ff0000;stroke:#000000;stroke-width:0.0475586;stroke-opacity:1"
       d="m 85.987962,104.00867 c -0.247143,-0.0875 -0.641596,-0.45009 -0.808234,-0.74303 -0.394139,-0.69287 -0.390519,-1.69805 0.0085,-2.35067 0.291159,-0.47624 0.786195,-0.80308 1.216465,-0.80315 0.348838,-5e-5 0.617491,0.11418 0.913887,0.38859 0.307875,0.28504 0.501853,0.64294 0.599547,1.10619 0.08282,0.39273 0.08282,0.58894 0,0.98167 -0.185804,0.88107 -0.795823,1.50009 -1.469625,1.4913 -0.148567,-0.002 -0.355796,-0.0338 -0.460507,-0.0709 z"
       id="path4682" />
    <path
       style="fill:#ff0000;stroke:#000000;stroke-width:0.048;stroke-miterlimit:4;stroke-dasharray:none;stroke-opacity:1"
       d="m 90.50755,103.95738 c -0.296652,-0.098 -0.439191,-0.18952 -0.655816,-0.42111 -0.774476,-0.82798 -0.767341,-2.24155 0.01549,-3.06928 0.55946,-0.59155 1.345888,-0.59155 1.905348,0 0.789923,0.83522 0.789923,2.24944 0,3.08467 -0.352043,0.37223 -0.866703,0.53729 -1.265024,0.40572 z"
       id="path4721" />
    <path
       style="fill:#000000;stroke:#000000;stroke-width:0.0495293;stroke-miterlimit:4;stroke-dasharray:none;stroke-opacity:1"
       id="path6713-6-2"
       d="m 86.001252,101.06247 c 0.0012,0.209 -0.0016,0.41775 -0.0043,0.62653 -0.0023,0.17324 -0.0041,0.34644 -0.0049,0.51976 0.0011,0.15176 -0.0029,0.30293 -0.0061,0.45422 -4.66e-4,0.0999 -0.0038,0.19837 -0.0079,0.29731 -0.0034,0.0802 -0.0044,0.16098 -0.005,0.24182 0,0 0.599872,0.004 0.599872,0.004 v 0 c 5.87e-4,-0.0749 0.0017,-0.1498 0.005,-0.22403 0.0043,-0.10241 0.0069,-0.20493 0.0079,-0.30822 0.0032,-0.15406 0.0071,-0.30823 0.0061,-0.46279 7.2e-4,-0.17182 0.0026,-0.34358 0.0049,-0.51529 0.0027,-0.21104 0.0055,-0.42202 0.0043,-0.63326 0,0 -0.599873,0 -0.599873,0 z" />
    <path
       style="fill:#000000;stroke:#000000;stroke-width:0.0495293;stroke-miterlimit:4;stroke-dasharray:none;stroke-opacity:1"
       id="path6713-6-2-0"
       d="m 90.391419,100.95193 c 0.0012,0.209 -0.0016,0.41775 -0.0043,0.62653 -0.0023,0.17324 -0.0041,0.34644 -0.0049,0.51976 0.0011,0.15176 -0.0029,0.30293 -0.0061,0.45422 -4.66e-4,0.0999 -0.0038,0.19837 -0.0079,0.29731 -0.0034,0.0802 -0.0044,0.16098 -0.005,0.24182 0,0 0.599872,0.004 0.599872,0.004 v 0 c 5.87e-4,-0.0749 0.0017,-0.1498 0.005,-0.22403 0.0043,-0.10241 0.0069,-0.20493 0.0079,-0.30822 0.0032,-0.15406 0.0071,-0.30823 0.0061,-0.46279 7.2e-4,-0.17182 0.0026,-0.34358 0.0049,-0.51529 0.0027,-0.21104 0.0055,-0.42202 0.0043,-0.63326 0,0 -0.599873,0 -0.599873,0 z" />
  </g>
</svg>
